<?xml version="1.0" standalone="no"?>
<!DOCTYPE svg PUBLIC "-//W3C//DTD SVG 20010904//EN"
 "http://www.w3.org/TR/2001/REC-SVG-20010904/DTD/svg10.dtd">
<svg version="1.0" xmlns="http://www.w3.org/2000/svg"
 width="512.000000pt" height="512.000000pt" viewBox="0 0 512.000000 512.000000"
 preserveAspectRatio="xMidYMid meet">
<metadata>
Created by potrace 1.11, written by Peter Selinger 2001-2013
</metadata>
<g transform="translate(0.000000,512.000000) scale(0.100000,-0.100000)"
fill="#000000" stroke="none">
<path d="M362 4250 c-66 -40 -62 52 -62 -1495 l0 -1405 -134 0 c-175 0 -180
-3 -151 -115 43 -163 181 -296 375 -362 53 -17 143 -18 2137 -21 2321 -3 2157
-7 2309 68 137 67 233 181 268 316 20 76 20 79 0 98 -12 13 -41 16 -150 16
l-134 0 0 1405 c0 1547 4 1455 -62 1495 -33 20 -44 20 -2198 20 -2154 0 -2165
0 -2198 -20z m2533 -761 c4 -6 -91 -265 -210 -577 -119 -312 -235 -614 -257
-672 -22 -58 -44 -110 -50 -117 -7 -8 -36 -13 -80 -13 -83 0 -90 10 -64 84 23
64 123 321 141 361 7 17 90 230 185 475 94 244 176 450 182 457 13 16 144 18
153 2z m-760 -254 l0 -70 -285 -145 c-157 -80 -314 -160 -350 -179 l-64 -34
349 -176 350 -176 0 -70 c0 -65 -2 -70 -23 -73 -14 -2 -173 74 -435 209 -226
116 -418 216 -424 222 -17 13 -17 123 -1 134 7 4 197 104 423 220 267 139 419
212 435 210 24 -2 25 -5 25 -72z m1309 -136 c226 -116 417 -215 424 -221 16
-14 16 -122 -1 -136 -6 -6 -198 -106 -424 -222 -264 -136 -420 -210 -435 -208
-21 3 -23 8 -23 73 l0 70 347 175 c192 96 348 177 348 180 0 3 -156 84 -348
180 l-347 175 -3 59 c-4 72 1 86 29 86 12 0 207 -95 433 -211z m-2911 -90 c-9
-9 -9 -16 0 -30 10 -16 12 -16 22 -2 10 14 12 14 10 -3 0 -11 -5 -26 -10 -34
-8 -13 -6 -13 8 -1 9 7 15 17 12 21 -3 5 -1 11 4 14 5 4 8 -2 6 -11 -4 -26 5
-36 21 -22 15 13 17 9 8 -15 -3 -9 -10 -13 -16 -10 -5 3 -4 -3 4 -15 15 -24
30 -28 22 -6 -5 11 -2 14 12 8 27 -9 35 -25 22 -41 -9 -10 -8 -12 3 -10 8 2
13 -3 11 -10 -1 -8 6 -11 20 -8 13 2 28 -2 35 -9 17 -18 4 -27 -14 -9 -8 8
-20 11 -26 7 -8 -5 -6 -9 6 -11 9 -2 14 -8 11 -14 -4 -6 -2 -8 4 -4 6 3 14 2
17 -4 5 -8 12 -7 23 2 13 9 12 7 -2 -9 -18 -22 -18 -22 4 -18 16 3 19 1 11 -8
-7 -9 -5 -13 9 -13 10 0 17 4 14 7 -2 4 0 10 5 13 5 4 8 -5 7 -19 -2 -13 0
-22 4 -20 5 3 10 -2 14 -10 3 -8 12 -12 21 -9 8 3 15 1 15 -4 0 -6 -8 -13 -17
-16 -11 -3 -9 -4 6 -3 13 1 26 -4 29 -12 3 -8 0 -11 -7 -7 -8 5 -8 1 0 -18 7
-14 19 -28 27 -31 13 -5 13 -2 -2 14 -13 14 -14 21 -5 27 8 5 10 3 4 -6 -6
-10 -4 -12 8 -7 9 3 16 3 16 -1 -3 -21 14 -50 27 -45 17 6 18 -9 2 -25 -8 -8
-5 -10 16 -6 18 3 25 1 21 -6 -3 -5 -1 -11 4 -11 6 -1 16 -3 21 -4 6 -1 13 -3
17 -4 4 0 2 -6 -5 -13 -18 -18 -15 -27 8 -23 12 2 21 -3 25 -16 7 -21 25 -26
26 -6 0 6 4 2 9 -10 5 -13 13 -23 18 -23 4 0 8 -10 9 -22 2 -26 19 -37 46 -30
15 4 18 2 11 -9 -12 -20 -14 -40 -3 -33 5 3 9 0 9 -6 0 -6 5 -8 12 -4 8 5 9 2
4 -11 -5 -15 -4 -16 8 -6 11 9 14 8 12 -6 0 -10 5 -18 13 -18 18 0 27 -25 9
-26 -7 0 10 -9 37 -20 28 -11 56 -27 63 -36 6 -9 12 -13 12 -9 0 4 5 4 12 0 7
-5 4 -10 -10 -15 -12 -5 -22 -14 -22 -21 0 -10 2 -10 9 1 6 9 11 10 15 2 4 -6
4 -15 1 -21 -3 -5 -1 -10 4 -10 6 0 11 4 11 9 0 5 9 7 20 4 11 -3 17 -9 14
-14 -3 -5 1 -9 8 -9 10 0 10 -2 -1 -9 -16 -10 3 -26 23 -18 8 3 12 -3 11 -16
-2 -28 27 -55 69 -63 20 -3 34 -10 31 -14 -3 -4 2 -13 10 -20 17 -14 21 -35 5
-25 -15 9 -12 -2 6 -30 9 -14 21 -22 28 -18 17 11 36 12 36 3 0 -5 -6 -11 -12
-13 -8 -3 -6 -6 5 -6 17 -1 43 -45 38 -65 -1 -5 5 -4 13 3 16 14 36 7 36 -12
0 -7 -4 -6 -10 3 -7 12 -9 10 -7 -7 1 -17 4 -20 19 -12 15 8 19 5 24 -20 4
-17 10 -28 15 -26 4 3 5 13 2 23 -3 9 -3 14 1 10 7 -5 13 -27 15 -51 1 -5 6
-5 11 -2 5 3 10 -3 10 -14 0 -11 9 -22 20 -26 12 -4 17 -11 14 -18 -5 -8 -2
-8 7 1 19 18 26 15 34 -15 5 -21 8 -24 15 -13 7 11 9 9 7 -7 -1 -17 -4 -19
-14 -11 -8 7 -13 7 -13 0 0 -19 32 -23 46 -5 12 17 13 17 10 1 -1 -10 -5 -20
-9 -24 -7 -8 17 -34 32 -34 5 0 12 8 14 18 3 9 5 2 4 -15 l-1 -33 -718 0 -718
0 0 714 c0 393 3 721 6 730 3 9 11 16 17 16 8 0 8 -3 0 -11z m938 -941 c8 -15
8 -18 0 -14 -6 4 -16 16 -22 28 -8 15 -8 18 0 14 6 -4 16 -16 22 -28z m344
-346 c-3 -3 -11 0 -18 7 -9 10 -8 11 6 5 10 -3 15 -9 12 -12z"/>
<path d="M1026 2475 c4 -8 10 -15 15 -15 4 0 6 7 3 15 -4 8 -10 15 -15 15 -4
0 -6 -7 -3 -15z"/>
<path d="M1068 2453 c6 -2 9 -10 6 -15 -4 -7 -2 -8 5 -4 13 9 5 26 -12 25 -9
0 -8 -2 1 -6z"/>
<path d="M1135 2379 c-4 -6 -5 -12 -2 -15 2 -3 7 2 10 11 7 17 1 20 -8 4z"/>
<path d="M1274 2233 c4 -5 13 -8 19 -8 7 0 11 -8 11 -18 -1 -9 2 -14 7 -11 14
9 10 31 -7 38 -22 8 -39 8 -30 -1z"/>
<path d="M1484 2014 c11 -8 23 -14 28 -14 10 0 11 20 1 21 -5 0 -17 2 -28 4
-20 4 -20 4 -1 -11z"/>
<path d="M1515 1970 c3 -5 8 -10 11 -10 2 0 4 5 4 10 0 6 -5 10 -11 10 -5 0
-7 -4 -4 -10z"/>
<path d="M1825 1670 c3 -5 10 -10 16 -10 5 0 9 5 9 10 0 6 -7 10 -16 10 -8 0
-12 -4 -9 -10z"/>
</g>
</svg>
